#define lytge-lnuga_width 15
#define lytge-lnuga_height 15
static char lytge-lnuga_bits[] = {
  0x00, 0x00, 0x00, 0x01, 0x80, 0x1B, 0xF8, 0x1F, 0xF4, 0x06, 0x7E, 0x0F, 
  0xFA, 0x1F, 0xF6, 0x1F, 0xFC, 0x1F, 0xB6, 0x17, 0xFA, 0x0F, 0xDA, 0x0F, 
  0xF4, 0x06, 0xD8, 0x06, 0xF0, 0x03, };
