#define 9h74u-us6lg_width 15
#define 9h74u-us6lg_height 15
static char 9h74u-us6lg_bits[] = {
  0xFF, 0x7F, 0x01, 0x40, 0x81, 0x40, 0x81, 0x40, 0xC1, 0x41, 0xC1, 0x41, 
  0xF1, 0x47, 0xFD, 0x5F, 0xF1, 0x47, 0xC1, 0x41, 0xC1, 0x41, 0x81, 0x40, 
  0x81, 0x40, 0x01, 0x40, 0xFF, 0x7F, };
